<?xml version="1.0" encoding="UTF-8"?>
<svg xmlns="http://www.w3.org/2000/svg" version="1.1" width="100" height="100" viewBox="0 0 100 100">
	<rect x="0" y="0" width="100" height="100" fill="#ffffff"/>
	<g transform="scale(4)">
		<g transform="translate(4,4)">
			<path fill-rule="evenodd" d="M8 0L8 1L9 1L9 0ZM11 0L11 1L12 1L12 0ZM14 0L14 3L15 3L15 0ZM8 1L8 2L9 2L9 1ZM11 1L11 2L12 2L12 1ZM8 2L8 3L9 3L9 2ZM11 2L11 3L12 3L12 2ZM8 3L8 4L9 4L9 3ZM11 3L11 4L12 4L12 3ZM14 3L14 4L15 4L15 3ZM0 4L0 7L3 7L3 4ZM8 4L8 7L11 7L11 4ZM14 4L14 7L17 7L17 4ZM0 7L0 8L3 8L3 7ZM8 7L8 8L11 8L11 7ZM14 7L14 8L17 8L17 7ZM0 8L0 9L3 9L3 8ZM8 8L8 9L11 9L11 8ZM14 8L14 9L17 9L17 8ZM0 11L0 12L1 12L1 11ZM2 11L2 12L3 12L3 11ZM4 11L4 12L5 12L5 11ZM7 11L7 12L8 12L8 11ZM12 11L12 12L13 12L13 11ZM16 11L16 12L17 12L17 11ZM0 12L0 13L1 13L1 12ZM2 12L2 13L3 13L3 12ZM4 12L4 13L5 13L5 12ZM7 12L7 13L8 13L8 12ZM12 12L12 13L13 13L13 12ZM16 12L16 13L17 13L17 12ZM0 13L0 14L1 14L1 13ZM2 13L2 14L3 14L3 13ZM4 13L4 14L5 14L5 13ZM7 13L7 14L8 14L8 13ZM12 13L12 14L13 14L13 13ZM16 13L16 14L17 14L17 13ZM0 14L0 15L1 15L1 14ZM2 14L2 15L3 15L3 14ZM4 14L4 15L5 15L5 14ZM7 14L7 15L8 15L8 14ZM12 14L12 15L13 15L13 14ZM16 14L16 15L17 15L17 14ZM0 15L0 16L1 16L1 15ZM2 15L2 16L3 16L3 15ZM4 15L4 16L5 16L5 15ZM7 15L7 16L8 16L8 15ZM12 15L12 16L13 16L13 15ZM16 15L16 16L17 16L17 15ZM0 16L0 17L1 17L1 16ZM2 16L2 17L3 17L3 16ZM4 16L4 17L5 17L5 16ZM7 16L7 17L8 17L8 16ZM12 16L12 17L13 17L13 16ZM16 16L16 17L17 17L17 16Z" fill="#000000"/>
		</g>
	</g>
</svg>
